# xmcd CD database file
#
# Track frame offsets:
#	150
#	25030
#	42036
#	62044
#	80760
#	100800
#	122562
#	143460
#	159695
#	183908
#	201084
#	220301
#	239732
#	260199
#	279763
#	299298
#
# Disc length: 4259 seconds
#
# Revision: 0
# Processed by: cddbd v1.5.2PL0 Copyright (c) Steve Scherf et al.
# Submitted via: CDex 1.70beta2
#
DISCID=e810a110
DTITLE=Orquesta Magia Caribeña - En Curazao
DYEAR=2007
DGENRE=Salsa
TTITLE0=Costumbres
TTITLE1=Rumba Buena (Canta Argenis Carruyo)
TTITLE2=Hay Algo En Ti
TTITLE3=Rosa, La Peligrosa
TTITLE4=Señor Gallo (Canta Orlando Watussi)
TTITLE5=No Le Digan
TTITLE6=Te Lo Pido Por Favor (Canta Raulín Rosendo)
TTITLE7=Federico Boogaloo
TTITLE8=Y Si Tengo Que Olvidarla
TTITLE9=El Amor Que Buscaba
TTITLE10=Te Quiero
TTITLE11=Quisiera
TTITLE12=Pasión Gitana
TTITLE13=Yo No Sé Que Me Pasó
TTITLE14=Por Amor A Ti
TTITLE15=Dolores (Versión Curazao)
EXTD=YEAR: 2007
EXTT0=
EXTT1=
EXTT2=
EXTT3=
EXTT4=
EXTT5=
EXTT6=
EXTT7=
EXTT8=
EXTT9=
EXTT10=
EXTT11=
EXTT12=
EXTT13=
EXTT14=
EXTT15=
PLAYORDER=
